<?xml version="1.0" encoding="utf-8"?>
<!-- Generator: Adobe Illustrator 18.1.1, SVG Export Plug-In . SVG Version: 6.00 Build 0)  -->
<svg version="1.1" id="Layer_1" xmlns="http://www.w3.org/2000/svg" xmlns:xlink="http://www.w3.org/1999/xlink" x="0px" y="0px"
	 viewBox="-21.9 456.1 1573.1 746.8" enable-background="new -21.9 456.1 1573.1 746.8" xml:space="preserve">
<rect x="-21.9" y="455.7" fill="#3691CC" width="1573.1" height="746.8"/>
<path fill="#3691CC" stroke="#FFFFFF" stroke-width="1.7848" stroke-miterlimit="10" d="M969.5,1057.5"/>
<g>
	
		<rect x="433.6" y="1019.1" transform="matrix(-0.9962 -8.724922e-02 8.724922e-02 -0.9962 786.2283 2083.3796)" fill="#3083B9" width="10.1" height="10.8"/>
	<path fill="#3083B9" d="M439.9,1009.2c-2.8-0.2-5.3,2.2-5.6,5.3l-0.4,4.9l10,0.9l0.4-4.9C444.6,1012.3,442.6,1009.6,439.9,1009.2z"
		/>
	<polygon fill="#3083B9" points="437,1099.6 444.1,1017.7 434,1016.8 426.7,1099.6 	"/>
</g>
<g>
	<line fill="none" x1="409" y1="1133.6" x2="408.5" y2="1129.9"/>
	<path fill="#3083B9" d="M413.7,1052l-3.4-1.2c0,0-1.7-21.6-2-24c-0.2-2.4,3.1-2.6,3.3-0.2C411.9,1028.9,413.7,1052,413.7,1052z"/>
	<path fill="#3083B9" d="M400,1022.7c-1-3.8,1.6-7.3,4.3-7.5c2.7-0.2,4.4,2.9,5.6,6.8C410.3,1023.5,400.5,1024.5,400,1022.7z"/>
	<polygon fill="#3083B9" points="416.1,1100.8 409.5,1021.1 399.7,1021.9 406.2,1100.8 	"/>
</g>
<path fill="#3083B9" d="M428.5,1106.3v-105.9c0-2.6-2.5-3.6-5.7-3.6s-5.7,1-5.7,3.6v105.9"/>
<rect x="-21.7" y="1072.3" fill="#EEE3D1" stroke="#FFFFFF" stroke-width="0.1754" stroke-miterlimit="10" width="1572.6" height="46.7"/>
<rect x="-21.7" y="1118.5" fill="#DDCCAC" width="1572.9" height="20.6"/>
<g>
	<g>
		<polygon fill="#3083B9" points="270.1,867.9 125.3,866.9 125.3,745 271.4,745 		"/>
		<rect x="139.1" y="760.9" fill="#3083B9" width="86.8" height="40.4"/>
		<rect x="139.3" y="813.7" fill="#3083B9" width="86.8" height="40.4"/>
		<text transform="matrix(1.0028 0 0 1 243.1919 785.7991)" fill="#3083B9" font-family="'OpenSans'" font-size="21.7288">A</text>
		<text transform="matrix(1.0028 0 0 1 243.1919 839.9934)" fill="#3083B9" font-family="'OpenSans'" font-size="21.7288">B</text>
		<polygon fill="#3083B9" points="144.4,802 154.2,792.5 162.3,793.4 168.6,781.8 179.5,789.5 182.6,775.2 194.4,781.8 201.8,769.1 
			209.3,773.4 215.8,761.6 227.4,759.6 227.4,803.4 		"/>
		<polygon fill="#3083B9" points="137.7,845.1 153.8,837.2 165.3,841.1 176.8,833.3 187.7,833.9 196.7,824.5 211.2,827.5 219.8,813 
			226.5,811.8 227.1,855.8 137.3,855.5 		"/>
	</g>
	<g>
		<polygon fill="#F2F2F2" points="273.1,861.9 132.2,860.9 132.2,741.9 274.4,741.9 		"/>
		<rect x="145.8" y="757.5" fill="#3691CC" width="84.4" height="39.5"/>
		<rect x="145.9" y="809" fill="#F9AD4C" width="84.4" height="39.5"/>
		<text transform="matrix(1 0 0 1 246.9795 781.7805)" fill="#808080" font-family="'OpenSans'" font-size="21.203">A</text>
		<text transform="matrix(1 0 0 1 246.9795 834.6624)" fill="#808080" font-family="'OpenSans'" font-size="21.203">B</text>
		<polygon fill="#D7DE3E" points="150.8,797.6 160.3,788.4 168.3,789.1 174.4,777.9 185,785.4 188.1,771.4 199.4,777.9 206.8,765.4 
			214,769.7 220.4,758.2 231.7,756.2 231.7,798.8 		"/>
		<polygon fill="#D7DE3E" points="144.4,839.6 160,832 171.2,835.8 182.4,828.2 193,828.8 201.7,819.6 215.9,822.5 224.3,808.4 
			230.8,807.1 231.4,850.1 143.8,849.8 		"/>
	</g>
	<g>
		<polygon fill="#BCBBBB" points="205.8,738.1 205.9,745.4 208.9,738.9 		"/>
		
			<ellipse transform="matrix(-0.2109 0.9775 -0.9775 -0.2109 973.1052 691.4743)" fill="#BCBBBB" cx="207.5" cy="738.5" rx="2.3" ry="6"/>
	</g>
</g>
<g>
	
		<rect x="509.6" y="726.9" transform="matrix(-0.999 -4.528229e-02 4.528229e-02 -0.999 1144.9254 1585.905)" fill="#3083B9" width="161.6" height="106.2"/>
	
		<rect x="516.9" y="723.9" transform="matrix(-0.999 -4.528229e-02 4.528229e-02 -0.999 1155.5609 1577.5552)" fill="#EAF3F7" width="157.4" height="103.6"/>
	<path fill="#F9AD4C" d="M544.9,791.1c-0.1,2.9-5.4,5.1-12,4.8c-6.4-0.3-11.7-2.9-11.4-5.9c0.1-2.9,6.9-5.1,13.3-4.8
		C541.2,785.5,545,788.2,544.9,791.1z"/>
	<path fill="#DD6147" d="M573.6,797.8c-0.1,2.9-8,5-14.5,4.8c-6.5-0.3-9.6-2.8-9.5-5.8c0.1-2.9,5.7-5.1,12.2-4.9
		C568.4,792.1,573.7,794.8,573.6,797.8z"/>
	<path fill="#D7DE3E" d="M607.7,794.7c-0.1,3.2-5.6,5.4-12.1,5.2c-6.5-0.3-12.3-1.8-12.2-5c0.1-3.2,7.7-7.5,14.3-7.2
		C604.2,788,607.8,791.5,607.7,794.7z"/>
	<line fill="none" stroke="#D7DE3E" stroke-width="1.8077" stroke-miterlimit="10" x1="614" y1="766.1" x2="664.6" y2="768.4"/>
	
		<rect x="616.9" y="747.4" transform="matrix(-0.9998 -2.128956e-02 2.128956e-02 -0.9998 1229.3352 1527.4442)" fill="#3691CC" width="11.9" height="19.7"/>
	
		<rect x="634.1" y="739.6" transform="matrix(-0.999 -4.528229e-02 4.528229e-02 -0.999 1245.3124 1537.1904)" fill="#F9AD4C" width="11.9" height="29.8"/>
	
		<rect x="650.2" y="744.8" transform="matrix(-0.9977 -6.750087e-02 6.750087e-02 -0.9977 1259.7814 1555.7123)" fill="#EA327D" width="11.9" height="23.5"/>
	
		<rect x="625.7" y="800.1" transform="matrix(-0.9912 0.1321 -0.1321 -0.9912 1380.481 1520.1083)" fill="#8EC44A" width="28.2" height="11.6"/>
	<g>
		<polygon fill="#BCBBBB" points="602.4,720 602.4,727.3 605.5,720.8 		"/>
		
			<ellipse transform="matrix(-0.2109 0.9775 -0.9775 -0.2109 1435.5125 281.9824)" fill="#BCBBBB" cx="603.9" cy="720.4" rx="2.3" ry="6"/>
	</g>
	<g>
		
			<rect x="540.4" y="757.2" transform="matrix(-0.9218 -0.3876 0.3876 -0.9218 745.1603 1683.8734)" fill="#3691CC" width="3.9" height="19.1"/>
		<polygon fill="#3691CC" points="534.7,772.1 534.7,782.3 544.3,775.4 		"/>
	</g>
	<g>
		
			<rect x="563.7" y="758.1" transform="matrix(-0.9994 -3.385746e-02 3.385746e-02 -0.9994 1104.8823 1557.3867)" fill="#3691CC" width="3.9" height="22.5"/>
		<polygon fill="#3691CC" points="560.4,778.7 564,789.7 570.4,778 		"/>
	</g>
	<g>
		
			<rect x="584.8" y="759.7" transform="matrix(0.9218 -0.3876 0.3876 0.9218 -252.3077 287.5557)" fill="#3691CC" width="3.9" height="19.1"/>
		<polygon fill="#3691CC" points="594.4,774.5 594.4,784.8 584.9,777.7 		"/>
	</g>
	<g>
		<path fill="#40B24F" d="M584.9,754l-40.4-0.8c-2.3,0-4.1-2-4-4.3l0.3-14.8c0-2.3,2-4.1,4.3-4l40.4,0.8c2.3,0,4.1,2,4,4.3
			l-0.3,14.8C589.2,752.2,587.3,754,584.9,754z"/>
		<path fill="#FFFFFF" stroke="#FFFFFF" stroke-width="0.2516" stroke-miterlimit="10" d="M545,743.8h0.4c0.1,0,0.1,0,0.1-0.1l0.1-4
			c0-0.1,0-0.1-0.1-0.1h-0.4c-0.1,0-0.1,0-0.1,0.1l-0.1,4C544.9,743.7,544.9,743.8,545,743.8z"/>
		<circle fill="#FFFFFF" stroke="#FFFFFF" stroke-width="0.2516" stroke-miterlimit="10" cx="543.5" cy="741.6" r="0.5"/>
		<circle fill="#FFFFFF" cx="585.1" cy="742.4" r="2.3"/>
		
			<rect x="547.8" y="733.4" transform="matrix(-0.9993 -3.637027e-02 3.637027e-02 -0.9993 1102.116 1504.3164)" fill="#99C7E2" width="33.8" height="17.4"/>
	</g>
	<g>
		<polygon fill="#A766A7" points="636.7,789.3 642.9,789.1 642.5,774 636.3,774 		"/>
		<polygon fill="#A766A7" points="647.7,787.8 641.8,795.4 631.8,787.4 		"/>
	</g>
	
		<rect x="631.5" y="807.9" transform="matrix(-0.9802 -0.1978 0.1978 -0.9802 1117.5309 1739.0015)" fill="#99C7E2" width="28.2" height="11.6"/>
</g>
<g>
	
		<rect x="277.4" y="564.7" transform="matrix(-0.9996 -2.782978e-02 2.782978e-02 -0.9996 725.1341 1263.7739)" fill="#3083B9" stroke="#3083B9" stroke-width="0.1835" stroke-miterlimit="10" width="187.9" height="124.3"/>
	
		<rect x="283.9" y="561.5" transform="matrix(-0.9996 -2.782978e-02 2.782978e-02 -0.9996 738.2558 1257.5465)" fill="#E6E7E7" width="187.9" height="124.3"/>
	<g>
		
			<ellipse transform="matrix(-2.782967e-02 0.9996 -0.9996 -2.782967e-02 977.1252 359.2414)" fill="#3691CC" cx="313.9" cy="654.8" rx="17.5" ry="17.4"/>
		<path fill="#F6EB48" d="M314.3,637.3l-0.4,17.6l14.5-9.6C328.4,645.1,323.8,637.2,314.3,637.3z"/>
	</g>
	<g>
		
			<ellipse transform="matrix(-2.782967e-02 0.9996 -0.9996 -2.782967e-02 1024.746 315.3541)" fill="#EF5D35" cx="359" cy="656" rx="17.5" ry="17.4"/>
		<path fill="#8EC44A" d="M359.5,638.5l-0.4,17.2l11.9,13.1c3.9-3.3,8.3-11.2,3.8-20.4C372.2,643.3,367.3,638.7,359.5,638.5z"/>
	</g>
	<g>
		
			<ellipse transform="matrix(-2.782967e-02 0.9996 -0.9996 -2.782967e-02 1072.5161 271.3555)" fill="#A766A7" cx="404.3" cy="657.2" rx="17.5" ry="17.4"/>
		<path fill="#F49333" d="M404.8,639.8l-0.4,17.2l16.9,3.9c0,0,1.7-4.4-0.5-9.7C418.4,646,414.3,640.3,404.8,639.8z"/>
	</g>
	<polygon fill="#F9AE4E" points="457.7,675.5 436.8,675.7 436.5,640.2 457.6,641.2 	"/>
	<line fill="none" stroke="#FFFFFF" stroke-width="1.9019" stroke-miterlimit="10" x1="442.8" y1="647.3" x2="453" y2="647.5"/>
	<line fill="none" stroke="#FFFFFF" stroke-width="1.9019" stroke-miterlimit="10" x1="442.4" y1="658.3" x2="452.7" y2="658.5"/>
	<line fill="none" stroke="#FFFFFF" stroke-width="1.9019" stroke-miterlimit="10" x1="442.6" y1="651.3" x2="452.9" y2="651.7"/>
	<line fill="none" stroke="#FFFFFF" stroke-width="1.9019" stroke-miterlimit="10" x1="442.3" y1="661.8" x2="452.6" y2="662.1"/>
	<line fill="none" stroke="#FFFFFF" stroke-width="1.9019" stroke-miterlimit="10" x1="442.2" y1="668.9" x2="452.5" y2="669.1"/>
	
		<rect x="298.1" y="574.5" transform="matrix(-0.9996 -2.782978e-02 2.782978e-02 -0.9996 659.3779 1203.3938)" fill="none" stroke="#FFFFFF" stroke-width="1.9019" stroke-miterlimit="10" width="79.9" height="45.2"/>
	
		<rect x="298.5" y="574.6" transform="matrix(-0.9996 -2.782978e-02 2.782978e-02 -0.9996 660.5131 1181.0739)" fill="none" stroke="#FFFFFF" stroke-width="1.9019" stroke-miterlimit="10" width="79.9" height="22.6"/>
	
		<rect x="298.1" y="586" transform="matrix(-0.9996 -2.782978e-02 2.782978e-02 -0.9996 659.3675 1203.8074)" fill="none" stroke="#FFFFFF" stroke-width="1.9019" stroke-miterlimit="10" width="79.9" height="22.6"/>
	
		<rect x="298.3" y="580.1" transform="matrix(-0.9996 -2.782978e-02 2.782978e-02 -0.9996 659.9479 1192.0236)" fill="none" stroke="#FFFFFF" stroke-width="1.9019" stroke-miterlimit="10" width="79.9" height="22.6"/>
	
		<rect x="298" y="591.5" transform="matrix(-0.9996 -2.782978e-02 2.782978e-02 -0.9996 659.009 1214.7656)" fill="none" stroke="#FFFFFF" stroke-width="1.9019" stroke-miterlimit="10" width="79.9" height="22.6"/>
	
		<rect x="298.1" y="574.2" transform="matrix(-0.9996 -2.782978e-02 2.782978e-02 -0.9996 619.4705 1202.2181)" fill="none" stroke="#FFFFFF" stroke-width="1.9019" stroke-miterlimit="10" width="40" height="45.2"/>
	
		<rect x="318.2" y="574.5" transform="matrix(-0.9996 -2.782978e-02 2.782978e-02 -0.9996 659.5851 1203.3959)" fill="none" stroke="#FFFFFF" stroke-width="1.9019" stroke-miterlimit="10" width="40" height="45.2"/>
	<g>
		<polygon fill="#BCBBBB" points="381.1,558.1 380.7,564.7 383.9,558.9 		"/>
		
			<ellipse transform="matrix(-0.2687 0.9632 -0.9632 -0.2687 1023.1627 340.2013)" fill="#BCBBBB" cx="382.4" cy="558.5" rx="2.1" ry="5.4"/>
	</g>
	<g>
		<path fill="#99C7E2" d="M452.9,615.7l-51.5-0.3c-2.9,0-5.3-2.5-5.3-5.3l0.1-18.8c0-2.9,2.5-5.3,5.3-5.3l51.5,0.3
			c2.9,0,5.3,2.5,5.3,5.3l-0.1,18.8C458.2,613.3,455.8,615.7,452.9,615.7z"/>
		<path fill="#FFFFFF" stroke="#FFFFFF" stroke-width="0.3201" stroke-miterlimit="10" d="M401.9,603.5h0.5c0.1,0,0.1-0.1,0.1-0.1
			v-5.1c0-0.1-0.1-0.1-0.1-0.1h-0.5c-0.1,0-0.1,0.1-0.1,0.1v5.1C401.7,603.4,401.8,603.5,401.9,603.5z"/>
		<circle fill="#FFFFFF" stroke="#FFFFFF" stroke-width="0.3201" stroke-miterlimit="10" cx="400" cy="600.8" r="0.7"/>
		<circle fill="#FFFFFF" cx="452.9" cy="600.9" r="2.8"/>
		
			<rect x="405.4" y="589.9" transform="matrix(-0.9997 -2.352870e-02 2.352870e-02 -0.9997 839.7352 1211.7358)" fill="#99C7E2" width="43.1" height="22"/>
	</g>
</g>
<g>
	<polygon fill="#3083B9" points="428.4,1007.1 418.9,1007.1 418.9,973.2 428.4,990.2 	"/>
	<circle fill="#3083B9" cx="423.6" cy="996.7" r="1.6"/>
	<polygon fill="#895E3E" points="478.5,995.9 460.7,999 492,1001.5 511,999 	"/>
	<polygon fill="#D1D2D3" points="493,920.4 481.3,920.4 481.3,878.6 493,899.5 	"/>
	<circle fill="#3691CC" cx="487.1" cy="907.5" r="2"/>
	<g>
		
			<rect x="494.7" y="938" transform="matrix(-0.9962 -8.724922e-02 8.724922e-02 -0.9962 911.8509 2060.8611)" fill="#B7569E" width="12.5" height="145.1"/>
		
			<rect x="500.5" y="940.5" transform="matrix(-0.9962 -8.724922e-02 8.724922e-02 -0.9962 928.9234 1934.9067)" fill="#8F2E8C" width="12.5" height="13.2"/>
		<polyline fill="#B7569E" stroke="#FFFFFF" stroke-width="1.0934" stroke-miterlimit="10" points="497.5,1090 492.8,1099.1 
			490.4,1089.8 		"/>
		<polyline fill="#B7569E" stroke="#FFFFFF" stroke-width="0.6623" stroke-miterlimit="10" points="491.5,1092.5 488.8,1082.7 
			500.3,1083.8 495.6,1092.9 		"/>
		<path fill="#EB89B1" d="M508.2,928.4c-3.4-0.3-6.5,2.6-6.9,6.5l-0.5,6l12.4,1.1l0.5-6C514.1,932.1,511.7,928.7,508.2,928.4z"/>
	</g>
	<g>
		<polygon fill="#8EC44B" points="482.6,1086.2 470.5,1087.2 458.7,944 470.8,943 		"/>
		<path fill="#09934B" d="M475.9,981l-4.1-1.6c0,0-2.2-26.6-2.4-29.7c-0.2-3.1,3.7-3.3,3.9-0.3C473.5,952.3,475.9,981,475.9,981z"/>
		<path fill="#09934B" d="M477.5,1100.5l-5.8-12.5l9.9-0.8C480.3,1092.1,478.4,1098.9,477.5,1100.5z"/>
		<path fill="#09934B" d="M459,944.9c-1.2-4.8,2.1-9.2,5.3-9.4c3.4-0.2,5.4,3.7,6.8,8.4C471.7,945.9,459.6,947.1,459,944.9z"/>
	</g>
	<path fill="#F49333" d="M487.2,913c-3.8,0-7,1.4-7,5.3V1098h14V918.3C494.2,914.5,491.1,913,487.2,913z"/>
	<polygon fill="#C3BDB3" points="508.7,1102.1 494.5,1103.2 460.9,1102.1 398.5,1072.4 433.5,1072.1 446.4,1071.9 	"/>
	<polygon fill="#DACAB8" points="511,1101.9 493.9,1105.7 460.7,1101.9 460.7,999 494.2,1001.1 511,999 	"/>
	<polygon fill="#C1B49C" points="511,999 494.2,1001.1 493.9,1105.7 511,1101.9 	"/>
</g>
<g>
	<polygon fill="#C3BDB3" points="285.7,1097.7 298.3,1110.5 139,1095.4 126.4,1082.6 	"/>
	<path fill="#C3BDB3" d="M166.8,1084.6l2.1,4c0,0-29.7-2.8-32.9-3.2c-3.3-0.3-7.4-4.6-4.1-4.3C135,1081.4,166.8,1084.6,166.8,1084.6
		z"/>
	<path fill="#C3BDB3" d="M307.4,1105.7l-9.5,3.6l-10.4-10.5C294.9,1101.3,304.6,1104.4,307.4,1105.7z"/>
	<path fill="#C3BDB3" d="M139.9,1095.3c-4.4,0.4-12.8-3.8-16.1-7.3c-3.5-3.5-0.7-5,3.6-5.4C129.1,1082.2,142,1095,139.9,1095.3z"/>
</g>
<g>
	<polygon fill="#B2DFDB" points="300.4,1098.4 299.1,1110.5 156.2,1096.5 157.2,1084.4 	"/>
	<path fill="#B2DFDB" d="M195.6,1086.1l-2.3,3.8c0,0-26.6-2.7-29.5-2.9c-2.9-0.2-2.5-4.3,0.4-3.9
		C167.2,1083.3,195.6,1086.1,195.6,1086.1z"/>
	<path fill="#B2DFDB" d="M313.5,1105.9l-13.3,3.4l1-9.9C305.7,1101.9,312,1105,313.5,1105.9z"/>
	<path fill="#B2DFDB" d="M157.1,1096.2c-4.9,0.3-8.6-3.6-8.3-6.9c0.3-3.3,4.7-4.7,9.5-5.1C160.4,1084,159.4,1096.1,157.1,1096.2z"/>
</g>
</svg>
